<svg version="1.1" xmlns="http://www.w3.org/2000/svg" xmlns:xlink="http://www.w3.org/1999/xlink" width="500" height="387"><defs/><g><g transform="translate(-150,-102) scale(1,1)"><rect fill="#C0C0C0" stroke="none" x="167" y="119" width="480" height="208" opacity="0.2"/></g><g transform="translate(-150,-102) scale(1,1)"><rect fill="#ffffff" stroke="none" x="160" y="112" width="480" height="208"/></g><g transform="translate(-150,-102) scale(1,1)"><path fill="none" stroke="#000000" d="M 160 112 L 640 112 L 640 320 L 160 320 L 160 112 Z Z" stroke-miterlimit="10"/></g><g transform="translate(-150,-102) scale(1,1)"><g><path fill="none" stroke="none"/><text fill="#000000" stroke="none" font-family="Arial" font-size="13px" font-style="normal" font-weight="bold" text-decoration="none" x="365.67822265625" y="131.5">web sayfası</text></g></g><g transform="translate(-150,-102) scale(1,1)"><path fill="#C0C0C0" stroke="none" d="M 175 291 C 175 279.954304 216.6375136 271 268 271 C 319.3624864 271 361 279.954304 361 291 C 361 302.045696 319.3624864 311 268 311 C 216.6375136 311 175 302.045696 175 291 Z" opacity="0.2"/></g><g transform="translate(-150,-102) scale(1,1)"><path fill="#ffffff" stroke="none" d="M 168 284 C 168 272.954304 209.6375136 264 261 264 C 312.3624864 264 354 272.954304 354 284 C 354 295.045696 312.3624864 304 261 304 C 209.6375136 304 168 295.045696 168 284 Z"/></g><g transform="translate(-150,-102) scale(1,1)"><path fill="none" stroke="#000000" d="M 168 284 C 168 272.954304 209.6375136 264 261 264 C 312.3624864 264 354 272.954304 354 284 C 354 295.045696 312.3624864 304 261 304 C 209.6375136 304 168 295.045696 168 284 Z" stroke-miterlimit="10"/></g><g transform="translate(-150,-102) scale(1,1)"><g><path fill="none" stroke="none"/><text fill="#000000" stroke="none" font-family="Arial" font-size="10px" font-style="normal" font-weight="bold" text-decoration="none" x="203.75390625" y="289.5">makale başlıklarını görme</text></g></g><g transform="translate(-150,-102) scale(1,1)"><path fill="#C0C0C0" stroke="none" d="M 175 219 C 175 199.1177472 214.17508 183 262.5 183 C 310.82492 183 350 199.1177472 350 219 C 350 238.8822528 310.82492 255 262.5 255 C 214.17508 255 175 238.8822528 175 219 Z" opacity="0.2"/></g><g transform="translate(-150,-102) scale(1,1)"><path fill="#ffffff" stroke="none" d="M 168 212 C 168 192.1177472 207.17508 176 255.5 176 C 303.82492 176 343 192.1177472 343 212 C 343 231.8822528 303.82492 248 255.5 248 C 207.17508 248 168 231.8822528 168 212 Z"/></g><g transform="translate(-150,-102) scale(1,1)"><path fill="none" stroke="#000000" d="M 168 212 C 168 192.1177472 207.17508 176 255.5 176 C 303.82492 176 343 192.1177472 343 212 C 343 231.8822528 303.82492 248 255.5 248 C 207.17508 248 168 231.8822528 168 212 Z" stroke-miterlimit="10"/></g><g transform="translate(-150,-102) scale(1,1)"><g><path fill="none" stroke="none"/><text fill="#000000" stroke="none" font-family="Arial" font-size="13px" font-style="normal" font-weight="bold" text-decoration="none" x="202.398681640625" y="219">siteyi tavsiye etme</text></g></g><g transform="translate(-150,-102) scale(1,1)"><path fill="#C0C0C0" stroke="none" d="M 391 191 C 391 177.7451648 428.6080768 167 475 167 C 521.3919232 167 559 177.7451648 559 191 C 559 204.2548352 521.3919232 215 475 215 C 428.6080768 215 391 204.2548352 391 191 Z" opacity="0.2"/></g><g transform="translate(-150,-102) scale(1,1)"><path fill="#ffffff" stroke="none" d="M 384 184 C 384 170.7451648 421.6080768 160 468 160 C 514.3919232 160 552 170.7451648 552 184 C 552 197.2548352 514.3919232 208 468 208 C 421.6080768 208 384 197.2548352 384 184 Z"/></g><g transform="translate(-150,-102) scale(1,1)"><path fill="none" stroke="#000000" d="M 384 184 C 384 170.7451648 421.6080768 160 468 160 C 514.3919232 160 552 170.7451648 552 184 C 552 197.2548352 514.3919232 208 468 208 C 421.6080768 208 384 197.2548352 384 184 Z" stroke-miterlimit="10"/></g><g transform="translate(-150,-102) scale(1,1)"><g><path fill="none" stroke="none"/><text fill="#000000" stroke="none" font-family="Arial" font-size="13px" font-style="normal" font-weight="bold" text-decoration="none" x="422.839599609375" y="191">siteye üye olma</text></g></g><g transform="translate(-150,-102) scale(1,1)"><path fill="#C0C0C0" stroke="none" d="M 191 154.5 C 191 143.7304464 230.17508 135 278.5 135 C 326.82492 135 366 143.7304464 366 154.5 C 366 165.2695536 326.82492 174 278.5 174 C 230.17508 174 191 165.2695536 191 154.5 Z" opacity="0.2"/></g><g transform="translate(-150,-102) scale(1,1)"><path fill="#ffffff" stroke="none" d="M 184 147.5 C 184 136.7304464 223.17508 128 271.5 128 C 319.82492 128 359 136.7304464 359 147.5 C 359 158.2695536 319.82492 167 271.5 167 C 223.17508 167 184 158.2695536 184 147.5 Z"/></g><g transform="translate(-150,-102) scale(1,1)"><path fill="none" stroke="#000000" d="M 184 147.5 C 184 136.7304464 223.17508 128 271.5 128 C 319.82492 128 359 136.7304464 359 147.5 C 359 158.2695536 319.82492 167 271.5 167 C 223.17508 167 184 158.2695536 184 147.5 Z" stroke-miterlimit="10"/></g><g transform="translate(-150,-102) scale(1,1)"><g><path fill="none" stroke="none"/><text fill="#000000" stroke="none" font-family="Arial" font-size="13px" font-style="normal" font-weight="bold" text-decoration="none" x="220.921875" y="154.5">kitapları inceleme</text></g></g><g transform="translate(-150,-102) scale(1,1)"><path fill="#C0C0C0" stroke="none" d="M 399 299 C 399 287.954304 430.1162064 279 468.5 279 C 506.8837936 279 538 287.954304 538 299 C 538 310.045696 506.8837936 319 468.5 319 C 430.1162064 319 399 310.045696 399 299 Z" opacity="0.2"/></g><g transform="translate(-150,-102) scale(1,1)"><path fill="#ffffff" stroke="none" d="M 392 292 C 392 280.954304 423.1162064 272 461.5 272 C 499.8837936 272 531 280.954304 531 292 C 531 303.045696 499.8837936 312 461.5 312 C 423.1162064 312 392 303.045696 392 292 Z"/></g><g transform="translate(-150,-102) scale(1,1)"><path fill="none" stroke="#000000" d="M 392 292 C 392 280.954304 423.1162064 272 461.5 272 C 499.8837936 272 531 280.954304 531 292 C 531 303.045696 499.8837936 312 461.5 312 C 423.1162064 312 392 303.045696 392 292 Z" stroke-miterlimit="10"/></g><g transform="translate(-150,-102) scale(1,1)"><g><path fill="none" stroke="none"/><text fill="#000000" stroke="none" font-family="Arial" font-size="13px" font-style="normal" font-weight="bold" text-decoration="none" x="419.23095703125" y="299">makale okuma</text></g></g><g transform="translate(-150,-102) scale(1,1)"><path fill="#C0C0C0" stroke="none" d="M 423 248 C 423 238.6111584 471.3532416 231 531 231 C 590.6467584 231 639 238.6111584 639 248 C 639 257.3888416 590.6467584 265 531 265 C 471.3532416 265 423 257.3888416 423 248 Z" opacity="0.2"/></g><g transform="translate(-150,-102) scale(1,1)"><path fill="#ffffff" stroke="none" d="M 416 241 C 416 231.6111584 464.3532416 224 524 224 C 583.6467584 224 632 231.6111584 632 241 C 632 250.3888416 583.6467584 258 524 258 C 464.3532416 258 416 250.3888416 416 241 Z"/></g><g transform="translate(-150,-102) scale(1,1)"><path fill="none" stroke="#000000" d="M 416 241 C 416 231.6111584 464.3532416 224 524 224 C 583.6467584 224 632 231.6111584 632 241 C 632 250.3888416 583.6467584 258 524 258 C 464.3532416 258 416 250.3888416 416 241 Z" stroke-miterlimit="10"/></g><g transform="translate(-150,-102) scale(1,1)"><g><path fill="none" stroke="none"/><text fill="#000000" stroke="none" font-family="Arial" font-size="13px" font-style="normal" font-weight="bold" text-decoration="none" x="457.8828125" y="248">kaynak kod indirebilme</text></g></g><g transform="translate(-150,-102) scale(1,1)"><path fill="#ffffff" stroke="none" d="M 293.83024875710225 409.68 C 293.83024875710225 404.886167936 297.71609108204774 401 302.509521484375 401 C 307.30295188670226 401 311.18879421164775 404.886167936 311.18879421164775 409.68 C 311.18879421164775 414.473832064 307.30295188670226 418.36 302.509521484375 418.36 C 297.71609108204774 418.36 293.83024875710225 414.473832064 293.83024875710225 409.68 Z"/></g><g transform="translate(-150,-102) scale(1,1)"><path fill="none" stroke="#000000" d="M 293.83024875710225 409.68 C 293.83024875710225 404.886167936 297.71609108204774 401 302.509521484375 401 C 307.30295188670226 401 311.18879421164775 404.886167936 311.18879421164775 409.68 C 311.18879421164775 414.473832064 307.30295188670226 418.36 302.509521484375 418.36 C 297.71609108204774 418.36 293.83024875710225 414.473832064 293.83024875710225 409.68 Z" stroke-miterlimit="10"/></g><g transform="translate(-150,-102) scale(1,1)"><path fill="none" stroke="#000000" d="M 302.509521484375 418.36 L 302.509521484375 435.64" stroke-miterlimit="10"/></g><g transform="translate(-150,-102) scale(1,1)"><path fill="none" stroke="#000000" d="M 293.31970330255683 424.84 L 311.69933966619317 424.84" stroke-miterlimit="10"/></g><g transform="translate(-150,-102) scale(1,1)"><path fill="none" stroke="#000000" d="M 302.509521484375 435.64 L 289.74588512073865 453" stroke-miterlimit="10"/></g><g transform="translate(-150,-102) scale(1,1)"><path fill="none" stroke="#000000" d="M 302.509521484375 435.64 L 315.27315784801135 453" stroke-miterlimit="10"/></g><g transform="translate(-150,-102) scale(1,1)"><g><path fill="none" stroke="none"/><text fill="#000000" stroke="none" font-family="Arial" font-size="13px" font-style="normal" font-weight="bold" text-decoration="none" x="278.66455078125" y="473.5">kullanıcı</text></g></g><g transform="translate(-150,-102) scale(1,1)"><path fill="#ffffff" stroke="none" d="M 544.4093503196023 401.68 C 544.4093503196023 396.886167936 548.2951926445477 393 553.088623046875 393 C 557.8820534492023 393 561.7678957741477 396.886167936 561.7678957741477 401.68 C 561.7678957741477 406.473832064 557.8820534492023 410.36 553.088623046875 410.36 C 548.2951926445477 410.36 544.4093503196023 406.473832064 544.4093503196023 401.68 Z"/></g><g transform="translate(-150,-102) scale(1,1)"><path fill="none" stroke="#000000" d="M 544.4093503196023 401.68 C 544.4093503196023 396.886167936 548.2951926445477 393 553.088623046875 393 C 557.8820534492023 393 561.7678957741477 396.886167936 561.7678957741477 401.68 C 561.7678957741477 406.473832064 557.8820534492023 410.36 553.088623046875 410.36 C 548.2951926445477 410.36 544.4093503196023 406.473832064 544.4093503196023 401.68 Z" stroke-miterlimit="10"/></g><g transform="translate(-150,-102) scale(1,1)"><path fill="none" stroke="#000000" d="M 553.088623046875 410.36 L 553.088623046875 427.64" stroke-miterlimit="10"/></g><g transform="translate(-150,-102) scale(1,1)"><path fill="none" stroke="#000000" d="M 543.8988048650568 416.84 L 562.2784412286932 416.84" stroke-miterlimit="10"/></g><g transform="translate(-150,-102) scale(1,1)"><path fill="none" stroke="#000000" d="M 553.088623046875 427.64 L 540.3249866832386 445" stroke-miterlimit="10"/></g><g transform="translate(-150,-102) scale(1,1)"><path fill="none" stroke="#000000" d="M 553.088623046875 427.64 L 565.8522594105114 445" stroke-miterlimit="10"/></g><g transform="translate(-150,-102) scale(1,1)"><g><path fill="none" stroke="none"/><text fill="#000000" stroke="none" font-family="Arial" font-size="13px" font-style="normal" font-weight="bold" text-decoration="none" x="542.608642578125" y="465.5">üye</text></g></g><g transform="translate(-150,-102) scale(1,1)"><path fill="none" stroke="#000000" d="M 527 432 L 334 438" stroke-miterlimit="10"/></g><g transform="translate(-150,-102) scale(1,1)"><path fill="#FFFFFF" stroke="none" d="M 354.05392963197943 428.9534588755913 L 334 438 L 354.5771402075629 445.7833990568582"/></g><g transform="translate(-150,-102) scale(1,1)"><path fill="none" stroke="#000000" d="M 354.05392963197943 428.9534588755913 L 334 438 L 354.5771402075629 445.7833990568582 L 354.05392963197943 428.9534588755913" stroke-miterlimit="10"/></g><g transform="translate(-150,-102) scale(1,1)"><path fill="none" stroke="#000000" d="M 267 305 L 291 399" stroke-miterlimit="10"/></g><g transform="translate(-150,-102) scale(1,1)"><path fill="none" stroke="#000000" d="M 527 392 L 475 313" stroke-miterlimit="10"/></g><g transform="translate(-150,-102) scale(1,1)"><path fill="none" stroke="#000000" d="M 527 259 L 547 391" stroke-miterlimit="10"/></g><g transform="translate(-150,-102) scale(1,1)"><path fill="none" stroke="#000000" d="M 263 249 L 294 399" stroke-miterlimit="10"/></g><g transform="translate(-150,-102) scale(1,1)"><path fill="none" stroke="#000000" d="M 273 168 L 298 399" stroke-miterlimit="10"/></g><g transform="translate(-150,-102) scale(1,1)"><path fill="none" stroke="#000000" d="M 452 209 L 328 399" stroke-miterlimit="10"/></g></g></svg>